<?xml version="1.0" encoding="UTF-8"?>
<svg xmlns="http://www.w3.org/2000/svg" width="97" height="108" viewBox="0 0 97 108" fill="none">
  <g id="Capa_1" clip-path="url(#clip0_626_691)">
    <g id="Group">
      <g id="Group_2">
        <path id="Vector" d="M54.46 77.5701C54.5 69.5501 42.03 69.4601 41.98 77.5101C41.94 85.5401 41.8899 93.5601 41.8499 101.59C41.8099 109.62 54.28 109.7 54.33 101.65C54.37 93.6201 54.42 85.6001 54.46 77.5701Z" fill="#FFF"></path>
        <path id="Vector_2" d="M73.4299 46.4602C80.0499 42.7202 86.6799 38.9702 93.2999 35.2302C100.3 31.2702 94.2199 20.3802 87.2299 24.3302C80.6099 28.0702 73.9799 31.8202 67.3599 35.5602C60.3599 39.5202 66.4399 50.4102 73.4299 46.4602Z" fill="#FFF"></path>
        <path id="Vector_3" d="M92.9899 72.5603C85.2999 68.0303 77.6099 63.4903 69.9199 58.9603C63.0099 54.8803 56.6499 65.6203 63.5799 69.7003C71.2699 74.2303 78.9599 78.7703 86.6499 83.3003C93.5599 87.3803 99.9199 76.6403 92.9899 72.5603Z" fill="#FFF"></path>
      </g>
      <path id="Vector_4" d="M42.0199 30.0801C41.9799 38.1001 54.4499 38.1901 54.4999 30.1401C54.5399 22.1101 54.5899 14.0901 54.6299 6.06011C54.6699 -1.96989 42.1999 -2.04989 42.1499 6.00011C42.1099 14.0301 42.0599 22.0501 42.0199 30.0801Z" fill="#FFF"></path>
    </g>
    <path id="Vector_5" d="M10.2599 23.3798C3.35989 19.2298 -3.06011 29.9298 3.81989 34.0698C6.00989 35.3798 12.9799 39.5198 21.6999 44.6898C28.1399 48.5098 28.0299 57.8698 21.4999 61.5398C13.0999 66.2498 5.70989 70.3998 3.08989 71.8598C-3.92011 75.7798 2.21989 86.6398 9.23989 82.7198C13.2399 80.4798 37.2699 66.9898 53.0799 58.1198C56.7199 56.0798 56.7799 50.8498 53.1799 48.7298L10.2599 23.3798Z" fill="#FFF"></path>
  </g>
  <defs>
    <clipPath id="clip0_626_691">
      <rect width="96.4" height="107.65" fill="white"></rect>
    </clipPath>
  </defs>
</svg>
