<?xml version="1.0" encoding="UTF-8"?>
<!-- Generator: Adobe Illustrator 27.2.0, SVG Export Plug-In . SVG Version: 6.00 Build 0)  -->
<svg xmlns="http://www.w3.org/2000/svg" xmlns:xlink="http://www.w3.org/1999/xlink" version="1.1" id="Capa_1" x="0px" y="0px" viewBox="0 0 1000 373" style="enable-background:new 0 0 1000 373;" xml:space="preserve">
<style type="text/css">
	.st0{fill:#280384;}
	.st1{fill:#6C46EB;}
</style>
<g>
	<g>
		<path class="st0" d="M323.7,278.1h-60.7V98.9h55.3c20.5,0,36.6,3.9,48.4,11.8c11.8,7.8,17.7,19.4,17.7,34.6c0,8.4-1.8,15.7-5.4,22    c-3.6,6.3-8.4,11.3-14.3,15.1c6.1,2.9,11.3,6.8,15.5,11.6c4.2,4.9,7,10.1,8.6,15.6c1.5,5.5,2.3,10.7,2.3,15.5    c0,8.7-1.6,16.4-4.7,23.2c-3.2,6.7-7.7,12.3-13.6,16.8c-5.9,4.4-13,7.7-21.2,9.9C343.2,277,334,278.1,323.7,278.1z M298.6,130.2    v43.3H325c15.4,0,23-7.5,23-22.5c0-5.5-1.6-9.8-4.7-13.1c-3.2-3.2-7-5.3-11.6-6.3c-4.6-0.9-9-1.4-13.1-1.4H298.6z M298.6,201v45.8    h22c11.1,0,19.5-1.7,25.3-5.1c5.8-3.4,8.7-9.1,8.7-17.1c0-15.7-10.3-23.5-31-23.5H298.6z"></path>
		<path class="st0" d="M518.2,244l5.6,28.4c-5.6,2.6-12.5,4.7-20.5,6.3c-8,1.6-16.1,2.4-24.3,2.4c-10.1,0-19.4-1.6-28-4.7    c-8.6-3.2-16-7.7-22.1-13.7c-6.1-6-10.9-13.3-14.2-21.9c-3.3-8.6-5-18-5-28.3c0-9.9,1.5-19.1,4.6-27.5c3.1-8.4,7.4-15.7,13.1-21.8    c5.6-6.1,12.4-10.8,20.2-14.1c7.8-3.3,16.4-5,25.6-5c16.5,0,29.9,5.4,40.2,16.1c10.2,10.7,15.4,24.7,15.4,42    c0,6.1-0.3,12.6-1,19.5h-80.9c3.2,19.8,15.2,29.7,35.8,29.7C494.6,251.5,506.5,249,518.2,244z M473.2,172.4    c-7.3,0-13.4,2.5-18,7.4c-4.7,5-7.6,11.8-8.8,20.5h48.6v-3.1c0-7.3-1.9-13.3-5.8-17.9C485.3,174.7,480,172.4,473.2,172.4z"></path>
		<path class="st1" d="M591.7,278.1V130.2h-47.6V98.9h131.8v31.2h-47.6v147.9H591.7z"></path>
		<path class="st1" d="M781.6,244l5.6,28.4c-5.6,2.6-12.5,4.7-20.5,6.3c-8,1.6-16.1,2.4-24.3,2.4c-10.1,0-19.4-1.6-28-4.7    c-8.6-3.2-16-7.7-22.1-13.7c-6.1-6-10.9-13.3-14.2-21.9c-3.3-8.6-5-18-5-28.3c0-9.9,1.5-19.1,4.6-27.5c3.1-8.4,7.4-15.7,13.1-21.8    c5.6-6.1,12.4-10.8,20.2-14.1c7.8-3.3,16.4-5,25.6-5c16.5,0,29.9,5.4,40.2,16.1s15.4,24.7,15.4,42c0,6.1-0.3,12.6-1,19.5h-80.9    c3.2,19.8,15.2,29.7,35.8,29.7C758,251.5,769.8,249,781.6,244z M736.5,172.4c-7.3,0-13.4,2.5-18,7.4c-4.7,5-7.6,11.8-8.8,20.5    h48.6v-3.1c0-7.3-1.9-13.3-5.8-17.9C748.7,174.7,743.4,172.4,736.5,172.4z"></path>
		<path class="st1" d="M929.3,147.3c-0.7,21-11.5,41.3-32.5,60.9l42.5,69.9h-38.4l-29.4-49.9l-17.1,11.5v38.4h-35.3V94.6l35.3-1.8    v112.9c11.8-7.7,20.9-16.3,27.3-25.7s10.6-20.3,12.7-32.6H929.3z"></path>
	</g>
	<g>
		<g>
			<g>
				<g>
					<g>
						<path class="st1" d="M150.5,219.6c0.1-13.2-20.5-13.4-20.6-0.1c-0.1,13.2-0.1,26.4-0.2,39.7c-0.1,13.2,20.5,13.4,20.6,0.1        C150.3,246.1,150.4,232.8,150.5,219.6z"></path>
					</g>
				</g>
				<g>
					<g>
						<path class="st1" d="M181.7,168.4c10.9-6.2,21.8-12.3,32.7-18.5c11.5-6.5,1.5-24.5-10-18c-10.9,6.2-21.8,12.3-32.7,18.5        C160.2,156.9,170.2,174.9,181.7,168.4z"></path>
					</g>
				</g>
				<g>
					<g>
						<path class="st1" d="M214,211.4c-12.7-7.5-25.3-14.9-38-22.4c-11.4-6.7-21.9,11-10.5,17.7c12.7,7.5,25.3,14.9,38,22.4        C214.9,235.8,225.4,218.1,214,211.4z"></path>
					</g>
				</g>
			</g>
			<g>
				<g>
					<path class="st1" d="M130,141.4c-0.1,13.2,20.5,13.4,20.6,0.1c0.1-13.2,0.1-26.4,0.2-39.7c0.1-13.2-20.5-13.4-20.6-0.1       C130.1,115,130.1,128.2,130,141.4z"></path>
				</g>
			</g>
		</g>
		<g>
			<g>
				<path class="st1" d="M77.7,130.4c-11.4-6.8-21.9,10.8-10.6,17.6c3.6,2.2,15.1,9,29.5,17.5c10.6,6.3,10.4,21.7-0.3,27.8      c-13.8,7.8-26,14.6-30.3,17c-11.6,6.5-1.4,24.3,10.1,17.9c6.6-3.7,46.2-25.9,72.2-40.5c6-3.4,6.1-12,0.2-15.5L77.7,130.4z"></path>
			</g>
		</g>
	</g>
</g>
</svg>
